<?xml version="1.0" encoding="UTF-8"?>
<svg version="1.1" xmlns="http://www.w3.org/2000/svg" width="1280" height="1013">
<path d="M0 0 C2.5504224 -0.00407628 5.10084302 -0.00942403 7.65126038 -0.01593018 C13.80221878 -0.02808338 19.95303235 -0.02645239 26.10399229 -0.01769225 C31.11140007 -0.01086162 36.11877716 -0.01002193 41.12618828 -0.0132637 C42.20333931 -0.01395325 42.20333931 -0.01395325 43.30225096 -0.01465673 C44.76195086 -0.0156161 46.22165076 -0.01658874 47.68135064 -0.0175745 C61.30407959 -0.02608787 74.92674754 -0.01635809 88.54946648 -0.0001734 C100.18990917 0.01322895 111.83026205 0.01089445 123.47070312 -0.00292969 C137.05287267 -0.01905272 150.63498906 -0.02526728 164.21716684 -0.0160929 C165.67059512 -0.01513744 167.12402341 -0.01419433 168.57745171 -0.0132637 C169.29220391 -0.01280088 170.00695612 -0.01233805 170.74336748 -0.0118612 C175.73415315 -0.00929159 180.72490454 -0.01359791 185.71568489 -0.02070236 C192.45549918 -0.03008755 199.19512005 -0.02322755 205.93492699 -0.00601959 C208.39172209 -0.00209086 210.84853158 -0.00312581 213.30532074 -0.00980759 C231.83646641 -0.05551736 249.82928766 1.24429925 267.84741211 5.82568359 C268.72260498 6.04248779 269.59779785 6.25929199 270.49951172 6.48266602 C277.05375234 8.13628954 283.45922488 9.99279468 289.78491211 12.38818359 C290.48874023 12.64937988 291.19256836 12.91057617 291.91772461 13.1796875 C308.09498548 19.22280207 324.09628244 26.1520302 337.75366211 36.89208984 C339.81039335 38.56778276 339.81039335 38.56778276 342.78491211 39.38818359 C342.78491211 40.04818359 342.78491211 40.70818359 342.78491211 41.38818359 C343.50678711 41.62794922 344.22866211 41.86771484 344.97241211 42.11474609 C348.18999932 43.57159808 350.21694736 45.34769175 352.78491211 47.76318359 C355.33365526 50.14466548 357.83133323 52.42390207 360.59741211 54.55224609 C361.31928711 55.15810547 362.04116211 55.76396484 362.78491211 56.38818359 C362.78491211 57.04818359 362.78491211 57.70818359 362.78491211 58.38818359 C363.77491211 58.71818359 364.76491211 59.04818359 365.78491211 59.38818359 C365.78491211 60.04818359 365.78491211 60.70818359 365.78491211 61.38818359 C366.77491211 61.71818359 367.76491211 62.04818359 368.78491211 62.38818359 C368.78491211 63.04818359 368.78491211 63.70818359 368.78491211 64.38818359 C369.77491211 64.71818359 370.76491211 65.04818359 371.78491211 65.38818359 C373.58904114 67.43483489 375.25926995 69.4733976 376.90991211 71.63818359 C377.39637207 72.26934082 377.88283203 72.90049805 378.3840332 73.55078125 C404.35800167 107.51804547 418.82452415 146.6497845 421.78491211 189.38818359 C421.86632446 190.54800247 421.94773682 191.70782135 422.03161621 192.90278625 C422.91277772 206.43243696 422.96666157 219.94734839 422.98803711 233.50146484 C422.99086449 234.72853842 422.99369186 235.95561199 422.99660492 237.21986961 C423.01149741 243.71778952 423.02078876 250.2156878 423.02514648 256.71362305 C423.0306081 263.33098195 423.0546166 269.94813275 423.08311844 276.56542683 C423.10198853 281.73846466 423.10696323 286.91145485 423.10848236 292.08452415 C423.1114562 294.51951417 423.11929898 296.95450448 423.13266754 299.38945961 C423.20001713 312.60173206 422.77564438 325.63194929 421.44018555 338.78344727 C421.26318052 340.53196598 421.26318052 340.53196598 421.08259964 342.3158083 C416.32648927 385.11138989 397.20861817 423.70736392 369.78491211 456.38818359 C369.25639648 457.05205078 368.72788086 457.71591797 368.18334961 458.39990234 C367.09458306 459.76563582 365.94748052 461.0846978 364.78491211 462.38818359 C364.12491211 462.38818359 363.46491211 462.38818359 362.78491211 462.38818359 C362.45491211 463.37818359 362.12491211 464.36818359 361.78491211 465.38818359 C361.12491211 465.38818359 360.46491211 465.38818359 359.78491211 465.38818359 C359.45491211 466.37818359 359.12491211 467.36818359 358.78491211 468.38818359 C357.35913086 469.86083984 357.35913086 469.86083984 355.47241211 471.45068359 C354.7440918 472.06556641 354.01577148 472.68044922 353.26538086 473.31396484 C352.44682617 473.99845703 351.62827148 474.68294922 350.78491211 475.38818359 C349.91479492 476.14486328 349.04467773 476.90154297 348.14819336 477.68115234 C335.44466863 488.58226702 321.6168567 497.65009069 306.78491211 505.38818359 C305.81013916 505.90010254 305.81013916 505.90010254 304.81567383 506.42236328 C279.09076518 519.73384114 249.72501778 527.68855985 220.72241211 527.45068359 C219.66602539 527.44617188 218.60963867 527.44166016 217.52124023 527.43701172 C214.94240303 527.42534277 212.36368917 527.40897245 209.78491211 527.38818359 C209.71014648 526.33244141 209.63538086 525.27669922 209.55834961 524.18896484 C207.04719226 494.1307554 195.10444409 466.69342738 171.83569336 446.87646484 C147.18324395 427.89569007 123.2046762 423.94797833 92.87084961 423.94677734 C90.24890417 423.93497328 87.62696537 423.92160181 85.0050354 423.90675354 C78.12147312 423.86981778 71.23794914 423.85036646 64.35430908 423.83520508 C53.39155529 423.81105725 42.42892978 423.76977692 31.46629715 423.71330452 C27.68887316 423.69732934 23.91157787 423.69322958 20.13412476 423.69029236 C7.82666584 423.65370818 -4.41186952 423.31631329 -16.69311523 422.48217773 C-17.85532404 422.40331801 -19.01753284 422.32445829 -20.2149601 422.24320889 C-63.56602007 419.02507676 -107.35517781 405.3837396 -141.21508789 377.38818359 C-141.78807617 376.91670898 -142.36106445 376.44523437 -142.95141602 375.95947266 C-154.78492416 366.18481308 -154.78492416 366.18481308 -159.21508789 361.38818359 C-159.21508789 360.72818359 -159.21508789 360.06818359 -159.21508789 359.38818359 C-159.87508789 359.38818359 -160.53508789 359.38818359 -161.21508789 359.38818359 C-164.14039982 356.27645472 -166.63943405 352.79080322 -169.21508789 349.38818359 C-170.00657227 348.34919922 -170.79805664 347.31021484 -171.61352539 346.23974609 C-185.74746331 327.3018416 -195.3386457 305.91445975 -202.21508789 283.38818359 C-202.4999707 282.46134766 -202.78485352 281.53451172 -203.07836914 280.57958984 C-220.33784943 221.01225532 -214.22561799 149.40752842 -184.78540039 94.79516602 C-173.79714885 75.08498982 -157.32914271 53.88583482 -138.21508789 41.38818359 C-137.55508789 41.38818359 -136.89508789 41.38818359 -136.21508789 41.38818359 C-136.21508789 40.72818359 -136.21508789 40.06818359 -136.21508789 39.38818359 C-114.584962 23.05523139 -87.40183613 12.22585423 -61.21508789 6.07568359 C-60.24531006 5.84550537 -59.27553223 5.61532715 -58.27636719 5.37817383 C-38.91978888 1.08073924 -19.7790955 -0.05384241 0 0 Z M-43.21508789 112.38818359 C-44.35333008 112.74912109 -45.49157227 113.11005859 -46.66430664 113.48193359 C-58.72536104 117.55009465 -68.63133331 123.00445317 -78.21508789 131.38818359 C-78.85317383 131.94248047 -79.49125977 132.49677734 -80.14868164 133.06787109 C-99.04335373 150.65801125 -103.39500061 177.79902093 -104.28588867 202.33837891 C-105.09923566 231.14043105 -102.5956158 263.09570995 -82.21508789 285.38818359 C-81.01432617 286.72623047 -81.01432617 286.72623047 -79.78930664 288.09130859 C-62.01885183 306.91616087 -36.0921155 314.18794909 -10.7810955 315.57658195 C-7.252503 315.64942865 -3.72854976 315.66683093 -0.19921875 315.65942383 C1.13821728 315.66382694 2.47565059 315.66913474 3.81307983 315.67526245 C6.66390206 315.68664455 9.51465114 315.6922131 12.36549568 315.69314384 C16.89651639 315.6951113 21.42738957 315.71331045 25.95835876 315.73390198 C37.21348999 315.78273742 48.46866088 315.81384552 59.72387695 315.83520508 C68.476942 315.85184181 77.22987825 315.87496839 85.98285764 315.91822582 C89.73870141 315.93621146 93.49437077 315.94864721 97.25026131 315.94692802 C118.3817319 315.94002125 138.7311165 316.90062224 159.15991211 322.70068359 C160.2549707 323.00337158 161.3500293 323.30605957 162.47827148 323.61791992 C170.86487392 325.993255 178.80271748 328.90111661 186.78491211 332.38818359 C188.44992418 333.01757822 190.11647127 333.6429353 191.78491211 334.26318359 C218.4572513 345.05495241 242.73318928 364.21246803 262.22241211 385.13818359 C262.70661621 385.65687012 263.19082031 386.17555664 263.68969727 386.70996094 C267.0558108 390.39687972 269.94346582 394.2832993 272.78491211 398.38818359 C277.90064157 396.89769851 280.89844257 393.77615103 284.53491211 390.07568359 C285.46134521 389.13462769 285.46134521 389.13462769 286.40649414 388.17456055 C299.87330412 374.18925554 308.34234281 357.21412081 312.78491211 338.38818359 C312.95152942 337.77967245 313.11814672 337.17116131 313.28981304 336.54421043 C314.99647407 329.86751244 315.07407706 323.41406463 315.05957031 316.55078125 C315.06468124 315.29251526 315.06979218 314.03424927 315.07505798 312.737854 C315.0883683 309.30743858 315.08903478 305.8771339 315.08649468 302.44669771 C315.08541789 299.56504746 315.09032717 296.68341897 315.0951001 293.80177343 C315.10617136 286.98664723 315.10664847 280.17157614 315.10058594 273.35644531 C315.09457045 266.3759469 315.10680058 259.3956513 315.12815601 252.41518748 C315.14591384 246.38417282 315.15175064 240.35322182 315.14851826 234.32218206 C315.14672502 230.73734166 315.14913984 227.15264536 315.1632328 223.56782913 C315.28383561 189.98074459 311.70563089 158.1041335 287.30834961 132.82177734 C262.16141643 109.23155908 230.85322954 107.23421503 198.21606445 107.24291992 C195.96076401 107.23992264 193.70546407 107.23651881 191.45016479 107.23274231 C185.35893337 107.22395571 179.26771602 107.22156645 173.17647886 107.22092652 C169.36070963 107.22021295 165.54494392 107.21807282 161.72917557 107.21542931 C149.07489366 107.20666872 136.42062192 107.2020074 123.7663378 107.20275978 C122.74661851 107.20281971 122.74661851 107.20281971 121.70629883 107.20288086 C121.02563943 107.20292174 120.34498003 107.20296262 119.64369459 107.20300474 C108.6261871 107.20341073 97.60871385 107.1938489 86.59121625 107.17974249 C75.23178829 107.16531504 63.87238214 107.15865816 52.51294291 107.15933627 C46.15429753 107.15958986 39.79569095 107.15681599 33.43705368 107.14615822 C27.45004274 107.13639615 21.46310706 107.13645299 15.47609329 107.14367485 C13.29462828 107.14471071 11.11315838 107.14241817 8.93170166 107.13631439 C-8.48015413 107.0908 -26.46351502 107.07167893 -43.21508789 112.38818359 Z " fill="#37B5FE" transform="translate(428.215087890625,86.61181640625)"/>
<path d="M0 0 C39.50728431 2.54494776 84.17565363 27.62360599 110 57 C113.8247221 61.54784724 117.4347229 66.24762802 121 71 C121.75152344 71.98355469 122.50304687 72.96710938 123.27734375 73.98046875 C134.97877095 89.99851647 143.22717115 108.09524781 149 127 C149.20560547 127.65822754 149.41121094 128.31645508 149.62304688 128.99462891 C158.20781814 156.6494434 160.56897079 185.18223491 160 214 C159.98743164 214.79422363 159.97486328 215.58844727 159.96191406 216.40673828 C159.05313594 263.35718344 144.99218663 308.7933605 116 346 C115.2575 346.98742187 114.515 347.97484375 113.75 348.9921875 C113.1725 349.65476562 112.595 350.31734375 112 351 C111.34 351 110.68 351 110 351 C109.773125 351.55171875 109.54625 352.1034375 109.3125 352.671875 C107.61274074 355.68692417 105.45195184 357.81230369 103 360.25 C102.113125 361.14203125 101.22625 362.0340625 100.3125 362.953125 C98 365 98 365 96 365 C96 365.66 96 366.32 96 367 C94.0403387 368.76369517 92.08121524 370.38951278 90 372 C89.36989014 372.48911865 88.73978027 372.9782373 88.09057617 373.48217773 C61.42011242 393.82205546 31.15698848 405.98348824 -1.5 412.75 C-2.43440918 412.94859619 -3.36881836 413.14719238 -4.33154297 413.35180664 C-23.68117299 417.17231959 -43.27074224 417.30697095 -62.91901278 417.33885384 C-66.46249384 417.34720665 -70.00590002 417.36813949 -73.54933167 417.38806152 C-83.27222784 417.44056814 -92.99516975 417.47448094 -102.71814728 417.50782013 C-111.66633379 417.53867006 -120.61445375 417.57366712 -129.56255394 417.62413073 C-133.74933415 417.6472013 -137.93600634 417.66114794 -142.12284362 417.66762543 C-145.35203454 417.6750443 -148.58115521 417.69504276 -151.81030273 417.71289062 C-152.94257294 417.71190872 -154.07484314 417.71092682 -155.24142456 417.70991516 C-166.09001898 417.79280897 -176.9614007 418.97141767 -187.375 422.125 C-188.43025879 422.44368042 -188.43025879 422.44368042 -189.50683594 422.76879883 C-201.94477394 426.72468473 -212.49026353 432.81459332 -222.5234375 441.09375 C-225 443 -225 443 -227 443 C-227.33 443.99 -227.66 444.98 -228 446 C-228.66 446 -229.32 446 -230 446 C-230 446.66 -230 447.32 -230 448 C-231.375 449.625 -231.375 449.625 -233 451 C-233.66 451 -234.32 451 -235 451 C-235.36351562 451.80244141 -235.36351562 451.80244141 -235.734375 452.62109375 C-237.33373726 455.62730243 -239.27047477 458.29183799 -241.25 461.0625 C-253.5902894 478.6996137 -259.57838123 497.42231548 -260.7890625 518.83984375 C-261 521 -261 521 -262 522 C-279.49260477 523.50737877 -298.10272826 520.28307428 -315 516 C-316.17780029 515.70681885 -316.17780029 515.70681885 -317.37939453 515.40771484 C-342.94279051 508.87548113 -366.6686424 496.34308542 -388 481 C-388.77859375 480.47019531 -389.5571875 479.94039062 -390.359375 479.39453125 C-391.94274144 478.31467534 -393.47958835 477.16682754 -395 476 C-395 475.34 -395 474.68 -395 474 C-395.59039062 473.72671875 -396.18078125 473.4534375 -396.7890625 473.171875 C-410.80953137 465.74053107 -422.76920835 449.59309745 -432 437 C-432.75667969 435.97648437 -433.51335937 434.95296875 -434.29296875 433.8984375 C-451.16724339 410.30431898 -462.57734975 384.50150307 -468.875 356.1875 C-469.06586182 355.3433252 -469.25672363 354.49915039 -469.45336914 353.62939453 C-473.35630956 334.89457313 -473.29099628 315.9772805 -473.23571944 296.93613458 C-473.22678764 293.19743061 -473.22869926 289.45872895 -473.2290802 285.72001648 C-473.22815027 279.45093667 -473.21955705 273.18190594 -473.20581055 266.9128418 C-473.1900717 259.70947106 -473.18481361 252.50615379 -473.1855461 245.3027671 C-473.18622625 237.56346415 -473.17926269 229.82418123 -473.1700995 222.08488441 C-473.1679888 219.88418292 -473.16726118 217.68348476 -473.16686058 215.48278236 C-473.15375623 178.35857631 -473.15375623 178.35857631 -470.5625 162.625 C-470.44068359 161.80773437 -470.31886719 160.99046875 -470.19335938 160.1484375 C-469.25116225 154.25116225 -469.25116225 154.25116225 -467 152 C-465.14645767 151.74831772 -465.14645767 151.74831772 -462.85162354 151.74603271 C-461.98247314 151.74039307 -461.11332275 151.73475342 -460.21783447 151.72894287 C-458.78404449 151.73501556 -458.78404449 151.73501556 -457.32128906 151.74121094 C-456.31626343 151.7377063 -455.31123779 151.73420166 -454.27575684 151.73059082 C-450.93897682 151.72175781 -447.60240734 151.72763 -444.265625 151.734375 C-441.95115111 151.73302838 -439.6366775 151.73108787 -437.32220459 151.72857666 C-432.46314815 151.72562292 -427.60416511 151.72992951 -422.74511719 151.73925781 C-416.51965585 151.75062703 -410.29436743 151.74411045 -404.06891251 151.73211288 C-399.28536685 151.72487935 -394.50186203 151.72718954 -389.71831512 151.73236847 C-387.42341847 151.73370215 -385.12851811 151.73206711 -382.83362579 151.72740936 C-379.62108069 151.72232253 -376.40881351 151.73008609 -373.19628906 151.74121094 C-372.248526 151.73716248 -371.30076294 151.73311401 -370.32427979 151.72894287 C-365.47966162 151.75997538 -361.54794107 152.10626793 -357 154 C-358.05287132 159.17661732 -359.33838898 164.10916675 -361 169.125 C-365.93565351 185.24968698 -365.31416338 201.74125428 -365.30158257 218.44671512 C-365.30050026 221.29912527 -365.30542778 224.15151376 -365.310188 227.00391918 C-365.32121767 233.74327112 -365.32175732 240.48256728 -365.31567383 247.22192383 C-365.30963522 254.1276266 -365.32195725 261.03312556 -365.3432439 267.9387936 C-365.36096829 273.91298272 -365.36684446 279.8871076 -365.36360615 285.86132199 C-365.36181082 289.40964865 -365.36425149 292.95782979 -365.37832069 296.50613213 C-365.48845861 326.89796734 -361.14973552 356.58175813 -339.38671875 379.71484375 C-338.25883858 380.81095265 -337.12961821 381.90568236 -336 383 C-336 383.66 -336 384.32 -336 385 C-335.443125 385.2475 -334.88625 385.495 -334.3125 385.75 C-331.57589087 387.22924818 -329.32349131 388.93467439 -327 391 C-327 391.66 -327 392.32 -327 393 C-323.38225105 389.43468219 -319.91848838 385.75689 -316.5 382 C-312.04310291 377.14453583 -307.50944367 372.37395763 -302.875 367.6875 C-302.31876953 367.11837891 -301.76253906 366.54925781 -301.18945312 365.96289062 C-299.83189202 364.6019567 -298.42034681 363.29527149 -297 362 C-296.34 362 -295.68 362 -295 362 C-295 361.34 -295 360.68 -295 360 C-292.68466163 358.07714343 -290.36213328 356.2764393 -287.9375 354.5 C-287.21232178 353.96463623 -286.48714355 353.42927246 -285.73999023 352.87768555 C-238.99107744 318.61952169 -189.45926949 308.95413181 -132.46697807 308.80076981 C-128.4072236 308.78880049 -124.3475666 308.76957833 -120.28785706 308.74765015 C-108.75842809 308.68643256 -97.22900979 308.63176831 -85.69946289 308.59863281 C-79.2984158 308.58015883 -72.89750463 308.55108298 -66.49655777 308.5106281 C-63.12986927 308.48980393 -59.7635009 308.4758376 -56.39672661 308.47182083 C-26.10739445 308.43182625 4.15638391 304.95791854 27 283 C48.42978518 260.6299683 52.74292847 229.82607849 52.1875 200.0859375 C51.41942885 175.34444548 47.01726682 151.71355916 31 132 C31 131.34 31 130.68 31 130 C30.01 129.67 29.02 129.34 28 129 C28 128.34 28 127.68 28 127 C27.40703125 126.72414063 26.8140625 126.44828125 26.203125 126.1640625 C24.1149041 125.06071174 22.55417312 123.88409808 20.75 122.375 C9.06612838 113.50913081 -5.66277779 108.0107928 -19.875 104.875 C-20.90625 104.58625 -21.9375 104.2975 -23 104 C-24.13015559 100.60953322 -23.96556544 100.28850641 -22.55859375 97.21875 C-22.22512939 96.46940186 -21.89166504 95.72005371 -21.5480957 94.94799805 C-21.18159912 94.14015869 -20.81510254 93.33231934 -20.4375 92.5 C-8.62326189 65.37608006 -2.37235485 35.91414112 -1.29003906 6.36816406 C-1.09190413 1.09190413 -1.09190413 1.09190413 0 0 Z " fill="#37B5FE" transform="translate(901,408)"/>
<path d="M0 0 C0.33 0 0.66 0 1 0 C1.02684312 2.81256281 1.04676188 5.62487241 1.0625 8.4375 C1.07087891 9.23994141 1.07925781 10.04238281 1.08789062 10.86914062 C1.0965143 12.91295221 1.0522815 14.95683902 1 17 C0 18 0 18 -2.1953125 18.1328125 C-25.4213338 18.07087644 -25.4213338 18.07087644 -32 15 C-28.448307 13.84758897 -25.40347902 14.04311725 -21.703125 14.33984375 C-20.49785156 14.43330078 -19.29257812 14.52675781 -18.05078125 14.62304688 C-16.79652344 14.72681641 -15.54226563 14.83058594 -14.25 14.9375 C-12.34541016 15.08735352 -12.34541016 15.08735352 -10.40234375 15.24023438 C-7.26772132 15.48770457 -4.13370246 15.74118127 -1 16 C-1.01160156 15.26394531 -1.02320313 14.52789063 -1.03515625 13.76953125 C-1.04417969 12.79371094 -1.05320312 11.81789063 -1.0625 10.8125 C-1.07410156 9.84957031 -1.08570313 8.88664063 -1.09765625 7.89453125 C-1.00486622 5.14423487 -0.62111685 2.67520409 0 0 Z " fill="#26B2FF" transform="translate(639,912)"/>
<path d="M0 0 C3.85382001 5.78073001 3.09077972 12.282301 3 19 C7.95 19 12.9 19 18 19 C18 19.33 18 19.66 18 20 C12.27959989 20.8320582 6.77759884 21.12036664 1 21 C-0.10087193 13.98194143 -0.09733092 7.09434233 0 0 Z " fill="#26B1FF" transform="translate(637,593)"/>
<path d="M0 0 C4.33304076 0.64465202 7.86672065 2.18925122 11.8125 4.0625 C12.97394531 4.61035156 14.13539063 5.15820312 15.33203125 5.72265625 C16.21246094 6.14417969 17.09289062 6.56570313 18 7 C18 7.33 18 7.66 18 8 C11.30965634 7.55397709 5.97187878 4.92654458 0 2 C0 1.34 0 0.68 0 0 Z " fill="#28B3FE" transform="translate(546,907)"/>
<path d="M0 0 C7.68897931 0.51405694 15.34855794 1.0765501 23 2 C23 2.33 23 2.66 23 3 C19.91684615 3.08733513 16.83401173 3.14050127 13.75 3.1875 C12.87730469 3.21263672 12.00460937 3.23777344 11.10546875 3.26367188 C4.58401668 3.33834499 4.58401668 3.33834499 1.390625 1.48828125 C0.93171875 0.99714844 0.4728125 0.50601562 0 0 Z " fill="#28B2FE" transform="translate(386,504)"/>
<path d="M0 0 C11.52164009 1.92710706 11.52164009 1.92710706 17 4 C17 4.33 17 4.66 17 5 C10.29873464 5.48736475 5.93438408 4.07708804 0 1 C0 0.67 0 0.34 0 0 Z " fill="#27B0FF" transform="translate(577,919)"/>
<path d="M0 0 C0 0.33 0 0.66 0 1 C-2.31 1 -4.62 1 -7 1 C-7 1.66 -7 2.32 -7 3 C-11.62 3 -16.24 3 -21 3 C-14.27490911 -0.36254544 -7.37658787 -0.15367891 0 0 Z " fill="#41C0FF" transform="translate(725,719)"/>
<path d="M0 0 C0.99 0.495 0.99 0.495 2 1 C1.01 1.495 1.01 1.495 0 2 C0 1.34 0 0.68 0 0 Z M-13 13 C-12.01 13.495 -12.01 13.495 -11 14 C-11.99 14.495 -11.99 14.495 -13 15 C-13 14.34 -13 13.68 -13 13 Z M-18 16 C-17.34 16.99 -16.68 17.98 -16 19 C-17.32 19.33 -18.64 19.66 -20 20 C-19.34 18.68 -18.68 17.36 -18 16 Z " fill="#42BBFF" transform="translate(603,773)"/>
<path d="M0 0 C0.66 0 1.32 0 2 0 C1.03644647 10.55808656 1.03644647 10.55808656 0 15 C-0.33 15 -0.66 15 -1 15 C-2.4002792 9.53891111 -1.42705634 5.30723432 0 0 Z " fill="#41BFFF" transform="translate(641,902)"/>
<path d="M0 0 C0 0.66 0 1.32 0 2 C-1.609375 3.32421875 -1.609375 3.32421875 -3.75 4.6875 C-4.44609375 5.14511719 -5.1421875 5.60273437 -5.859375 6.07421875 C-8.39090725 7.16906025 -9.46100862 6.9435441 -12 6 C-10.37829621 4.99466333 -8.75252763 3.99588093 -7.125 3 C-5.76761719 2.1646875 -5.76761719 2.1646875 -4.3828125 1.3125 C-2 0 -2 0 0 0 Z " fill="#28B3FE" transform="translate(696,835)"/>
<path d="M0 0 C-0.66 0 -1.32 0 -2 0 C-2 0.66 -2 1.32 -2 2 C-4.88211302 2.96070434 -6.69850044 3.10581883 -9.6875 3.0625 C-10.89986328 3.04896484 -10.89986328 3.04896484 -12.13671875 3.03515625 C-13.05904297 3.01775391 -13.05904297 3.01775391 -14 3 C-5.02487136 -1.67495712 -5.02487136 -1.67495712 0 0 Z " fill="#25B2FF" transform="translate(921,814)"/>
<path d="M0 0 C-3.46741134 2.95749791 -6.86873527 5.07848152 -11 7 C-11 6.34 -11 5.68 -11 5 C-10.34 5 -9.68 5 -9 5 C-8.67 4.01 -8.34 3.02 -8 2 C-4.77208445 -0.1519437 -3.71599191 -0.20086443 0 0 Z " fill="#41BFFF" transform="translate(979,788)"/>
<path d="M0 0 C0.66 0.33 1.32 0.66 2 1 C-0.48952921 3.66735273 -2.63408134 5.55746343 -6 7 C-6.66 6.34 -7.32 5.68 -8 5 C-6.71475739 4.13619741 -5.42157581 3.28419631 -4.125 2.4375 C-3.04605469 1.72400391 -3.04605469 1.72400391 -1.9453125 0.99609375 C-1.30335938 0.66738281 -0.66140625 0.33867188 0 0 Z " fill="#3EC0FF" transform="translate(639,745)"/>
<path d="M0 0 C-3.92857754 1.85131483 -6.98775112 2.22004943 -11.3125 2.125 C-12.38113281 2.10695313 -13.44976563 2.08890625 -14.55078125 2.0703125 C-15.35902344 2.04710937 -16.16726563 2.02390625 -17 2 C-17 1.67 -17 1.34 -17 1 C-14.91835982 0.63601378 -12.83459438 0.28416713 -10.75 -0.0625 C-9.00976562 -0.35833984 -9.00976562 -0.35833984 -7.234375 -0.66015625 C-4.37477376 -0.9606216 -2.66674071 -0.9439206 0 0 Z " fill="#4FC9FF" transform="translate(886,715)"/>
<path d="M0 0 C0.66 0 1.32 0 2 0 C2.39063507 1.43333021 2.76198474 2.87192679 3.125 4.3125 C3.33382812 5.11300781 3.54265625 5.91351562 3.7578125 6.73828125 C4 9 4 9 2 12 C0.86235649 7.73383684 0 4.43513689 0 0 Z " fill="#49C3FF" transform="translate(634,584)"/>
<path d="M0 0 C0.99 0 1.98 0 3 0 C6 5.75 6 5.75 6 8 C5.01 8 4.02 8 3 8 C2.01 5.36 1.02 2.72 0 0 Z " fill="#4DBFFE" transform="translate(1037,509)"/>
<path d="M0 0 C1.32 0.33 2.64 0.66 4 1 C1.69 2.65 -0.62 4.3 -3 6 C-3.33 5.01 -3.66 4.02 -4 3 C-2.25 1.4375 -2.25 1.4375 0 0 Z " fill="#48C4FE" transform="translate(983,782)"/>
<path d="M0 0 C2 4 2 4 1.3125 6.6875 C0 9 0 9 -3 10 C-2.01 6.7 -1.02 3.4 0 0 Z " fill="#40BFFE" transform="translate(884,492)"/>
<path d="M0 0 C0 0.66 0 1.32 0 2 C-3.96 2.66 -7.92 3.32 -12 4 C-8.54145481 0.54145481 -4.78095787 0 0 0 Z " fill="#25B0FE" transform="translate(390,196)"/>
<path d="M0 0 C-3.68734758 2.45823172 -6.69699971 3.01242616 -11 4 C-11.33 3.34 -11.66 2.68 -12 2 C-8.09971775 -0.60018816 -4.52565431 -0.15085514 0 0 Z " fill="#54C6FE" transform="translate(385,199)"/>
<path d="M0 0 C7.50769231 -0.36923077 7.50769231 -0.36923077 10 1.5 C10.495 2.2425 10.495 2.2425 11 3 C9.741875 2.87625 8.48375 2.7525 7.1875 2.625 C6.12595703 2.52058594 6.12595703 2.52058594 5.04296875 2.4140625 C3 2 3 2 0 0 Z " fill="#23B1FF" transform="translate(906,410)"/>
<path d="M0 0 C0.99 0.33 1.98 0.66 3 1 C1.68 3.64 0.36 6.28 -1 9 C-1.33 9 -1.66 9 -2 9 C-1.125 2.25 -1.125 2.25 0 0 Z " fill="#43C5FF" transform="translate(334,235)"/>
<path d="M0 0 C-3.06246747 1.78409802 -5.22079273 2.22880021 -8.75 2.125 C-9.54921875 2.10695313 -10.3484375 2.08890625 -11.171875 2.0703125 C-11.77515625 2.04710937 -12.3784375 2.02390625 -13 2 C-8.7920942 -0.80527053 -4.85771358 -1.68151624 0 0 Z " fill="#38C4FF" transform="translate(704,723)"/>
<path d="M0 0 C2.03144641 0.93446535 4.03533587 1.93224776 6 3 C6 3.66 6 4.32 6 5 C0.25 3.25 0.25 3.25 -2 1 C-1.34 0.67 -0.68 0.34 0 0 Z " fill="#3EBEFF" transform="translate(319,482)"/>
<path d="" fill="#FFFFFF" transform="translate(0,0)"/>
<path d="" fill="#FFFFFF" transform="translate(0,0)"/>
<path d="" fill="#FFFFFF" transform="translate(0,0)"/>
</svg>
